<svg xmlns="http://www.w3.org/2000/svg" version="1.1" xmlns:xlink="http://www.w3.org/1999/xlink" xmlns:svgjs="http://svgjs.dev/svgjs" viewBox="0 0 8.522909555084974 8.548234525238723"><g transform="matrix(1,0,0,1,2.6715819838084838,2.741319519301999)"><g><path d=" M -0.2666053517991058 -1.0208806074915873 C -0.22559412495662595 -1.0032148419300655 -0.17672736135357608 -0.9751428021936366 -0.15080637408572706 -0.9513709192421325 L -0.1096305394769648 -1.0038833048694475 C -0.1366959884998503 -1.02573419659472 -0.18556275210290016 -1.0538062363311491 -0.22717893656093135 -1.0687090277191784 M -0.3528973292397311 -1.4169042111181724 L -0.29894691529120015 -1.3327059163920787 L -0.6340561283010535 -1.1179832688769256 L -0.5957513343975966 -1.058202479621399 L -0.26064212138774323 -1.272925127136552 L -0.20345468260230037 -1.1836749347268927 L -0.4930968164600631 -0.9980855107439461 L -0.14673515891049443 -0.4575324586024239 L -0.08274445491866314 -0.4985347732033074 L -0.3918803268437455 -0.9809910019838249 L 0.13183306635255804 -1.3165625767436875 L 0.3940320781424185 -0.9073588643748716 C 0.4026641443741834 -0.8938871372186965 0.40115175033530526 -0.8869797017849652 0.38653556142409373 -0.8764266443269688 C 0.372761355460143 -0.8664130910084575 0.3210979168694501 -0.8321218514131075 0.2664344787735552 -0.8006590394673158 C 0.28594686984364626 -0.7905959090036964 0.31031479816910534 -0.7729549320147285 0.32447281274785533 -0.758273289627451 C 0.3935154144232522 -0.8025126290652463 0.4415084424171257 -0.8332643650159091 0.46281983000291294 -0.8611717969860555 C 0.4846707217281855 -0.8882372460089409 0.48230046841108865 -0.9104719463490127 0.45802278213424974 -0.9483611789757551 L 0.158597984719903 -1.4156617147055757 L -0.13357009797964253 -1.2284537783041733 L -0.1907575367650854 -1.3177039707138327 L 0.14603564213928982 -1.5335056265079565 L 0.1077308482358329 -1.5932864157634832 L -0.2290623306685423 -1.3774847599693594 L -0.28301274461707326 -1.4616830546954531 M -0.021130139813711202 -1.2031110119270865 C -0.011640214303727525 -1.1604971489971083 -0.004831933160212798 -1.0924115608901466 -0.002077871228316708 -1.045481664844286 L -0.2437269770922059 -0.8906439768120021 L -0.21081722458360203 -0.8392830170290849 L -0.046630549867719084 -0.9444863242287203 L 0.007859368220297203 -0.8594460465553655 L -0.17400894838806547 -0.7429131524265387 L -0.14002018760049095 -0.6898682267490996 L 0.04184812900787166 -0.8064011208779265 L 0.13572184927831554 -0.6598960880545232 L 0.1963446214811031 -0.6987403860974655 L 0.10247090121065922 -0.8452454189208687 L 0.29191706434437026 -0.9666338503050633 L 0.25792830355679575 -1.0196787759825026 L 0.06848214042308476 -0.8982903445983078 L 0.013992222335068472 -0.9833306222716626 L 0.18828269241808265 -1.0950079791451217 L 0.15537293990947876 -1.1463689389280387 L 0.05265102034364433 -1.080549433910831 C 0.05259447910917481 -1.123269415220387 0.049063887706083664 -1.1732647642475156 0.044388834547955947 -1.2213391220484129 M 0.7537522232043882 -1.5509048503661949 L 1.2261008599361585 -1.641722058964776 L 1.257254372241285 -1.4796897823312167 L 0.7849057355095148 -1.3888725737326353 M 1.23209344771238 -1.3139582890149168 C 1.3107273954166048 -1.2598315648534708 1.4091893975556284 -1.1820226056342724 1.4566636488371083 -1.1310697306882704 L 1.5200050848232678 -1.1829625287166217 C 1.4697736013139362 -1.2323669623683875 1.3699139990758111 -1.3068522618632774 1.2916576697025577 -1.3590149584291649 M 0.7759116167030193 -1.2608721603469957 C 0.7535869524014774 -1.1863160783427522 0.6957958874688331 -1.0896662319178827 0.6349089706339865 -1.0250072545184026 C 0.6542845014833817 -1.0195676953171313 0.6845750573331311 -1.00502526682966 0.7021374017821025 -0.993127197345257 C 0.7650263141828585 -1.0632626712300897 0.8240261700491187 -1.164218191177047 0.855264894471375 -1.2506713119794237 M 0.8808989563110781 -1.9276882208329607 L 0.9029896286728951 -1.8127926064928004 L 0.51705820614569 -1.7385906044569532 L 0.5306524660606543 -1.6678856110168545 L 1.3869684977240713 -1.8325272033203117 L 1.373374237809107 -1.9032321967604104 L 0.9805687186974478 -1.827708530566164 L 0.9584780463356307 -1.9426041449063245 M 0.6686217972466806 -1.6017458827736828 L 0.7246981193959086 -1.310087784833276 L 0.9908238585940576 -1.3612550686798779 L 1.0389701957928896 -1.1108415502461952 C 1.0416135241096882 -1.0970933570772872 1.0384407055805143 -1.0924100652242281 1.020953266385975 -1.0880294864477078 C 1.003465827191436 -1.0836489076711875 0.9415989579313497 -1.0717539302455938 0.8734623875536174 -1.0606901254226446 C 0.8882295318043859 -1.0421447364896241 0.9045071493790393 -1.0157432371743707 0.9124001970453539 -0.9958761840829511 C 0.9988174112499189 -1.0124913906456854 1.0547921977233303 -1.0232535130783653 1.0861037660274797 -1.040475176480447 C 1.118397348129408 -1.0578856490480142 1.1242524936320015 -1.0803960304562323 1.1159448903506344 -1.123604637558515 L 1.0674209348208312 -1.375982183587756 L 1.3472948671878884 -1.4297927957511565 L 1.2912185450386604 -1.7214508936915633 M 1.847116837604072 -1.3791067272838817 C 1.875635267082558 -1.3155795741910457 1.9003775132513314 -1.2324121451426264 1.9027212205504005 -1.1810457452678418 L 1.9718387740396424 -1.196269535849093 C 1.9685130529427943 -1.2478247448893633 1.9414291608474912 -1.3294057646731952 1.911551099240255 -1.3911576993359587 M 2.366601105942972 -1.3057030833116767 C 2.3304954339335193 -1.2556193489386704 2.270218065996829 -1.185743466728677 2.225425111002499 -1.1434399067972016 L 2.2758864637064766 -1.1092982623833076 C 2.3218882096344227 -1.1472961487926951 2.3808439134127135 -1.2102979344182345 2.431037428951694 -1.2648012462243818 M 1.6828640337589245 -1.2080423638734756 L 1.6704026288368738 -1.143229453220052 L 2.5100244259380453 -0.9817976167298502 L 2.522485830860096 -1.046610527383274 L 2.136554408332891 -1.1208125294191211 L 2.1837566997042948 -1.366315978863908 L 2.522551459938101 -1.3011768167713704 L 2.5350128648601515 -1.3659897274247943 L 2.1962181046263454 -1.4311288895173317 L 2.221518532801418 -1.5627187384197376 L 2.432651499323935 -1.5221247678403302 L 2.4443576675840433 -1.5830096233026374 C 2.4908160598424716 -1.5333445672897628 2.539993716358401 -1.487229948137033 2.5887178186026567 -1.449349057697508 C 2.6056377996144695 -1.4684988420973364 2.6293939092403846 -1.4914258404931466 2.6504687225791503 -1.5057035238744303 C 2.509320388746332 -1.6031055149024334 2.364921239071097 -1.7683413632316296 2.287034282538657 -1.929953930818788 L 2.2124012339074417 -1.944303427395695 C 2.1122030119949664 -1.8362788175811793 1.9212449650717565 -1.7222830969804777 1.7349301806587154 -1.6695118822027033 C 1.748603468573191 -1.6505899056249815 1.7631458970606624 -1.620299349775232 1.7697562792251984 -1.6017170235581304 C 1.8313953406631782 -1.6204153150588247 1.8931852432962928 -1.6451944985116795 1.9516135182347476 -1.6736749600198144 L 1.9406625866365816 -1.6167181597486238 L 2.1439394427768654 -1.5776346624931012 L 2.1186390146017926 -1.4460448135906954 L 1.7877003647502199 -1.5096735023593482 L 1.7752389598281693 -1.4448605917059243 L 2.106177609679742 -1.3812319029372717 L 2.058975318308338 -1.1357284534924847 M 2.239862744333716 -1.864686435207421 C 2.283074443494808 -1.7769496182169962 2.3555957153941396 -1.6774676343098422 2.438427616827017 -1.5892413564499324 L 1.966078980095247 -1.6800585650485136 C 2.07530619672576 -1.734413097032066 2.1734665164745146 -1.8000602723469434 2.239862744333716 -1.864686435207421 M 3.103875789803589 -1.563351874187527 L 2.99111942465116 -1.3873774382099908 L 3.05426814569573 -1.3469146277485926 L 3.1271012045262467 -1.4605823256288193 L 3.6769160690876395 -1.108286122544912 L 3.6040830102571224 -0.9946184246646856 L 3.6689156971962147 -0.9530766059243168 L 3.7816720623486444 -1.1290510419018527 L 3.4709803548093583 -1.328128069371932 L 3.529786306013257 -1.4199042106233741 L 3.463269653179643 -1.4625250376427137 L 3.404463701975744 -1.3707488963912713 M 2.932173654253533 -1.3491361496303647 L 2.8938688603500755 -1.2893553603748382 L 3.219716260940059 -1.0805672583940233 L 3.0206392334699794 -0.7698755508547372 C 3.0120071672382145 -0.7564038236985622 3.0056392359439688 -0.755733412606945 2.9882600728592648 -0.7656815124493903 C 2.9700389268272995 -0.7761691164313209 2.911942103466295 -0.8133949020558072 2.849569911892919 -0.8569231654984735 C 2.8472651120518884 -0.8310835080376482 2.839025766676519 -0.7959820381569527 2.830524607396886 -0.7753003967592708 C 2.906605551458146 -0.7253635371188467 2.9601899812750707 -0.6922167592785331 2.9978173999975493 -0.6823589014847079 C 3.0362868016672886 -0.6719615395513974 3.059338696382067 -0.6856950806118363 3.0857743992168474 -0.7269522450276221 L 3.285390930826412 -1.0384859355141693 L 3.6162902290999606 -0.8264608086964427 L 3.6545950230034174 -0.8862415979519693" fill="#589f43" fill-rule="nonzero"></path></g><g><path d=" M -1.7614879541289428 1.0899500074711315 L -1.7454986445903156 1.0905347984405926 L -1.7084493255910536 1.171943323557382 L -1.1628141375853984 1.1918993153902466 L -1.117954794634787 1.1144871758381103 L -1.1019654850961598 1.1150719668075715 L -1.1073382521280848 1.2619737481937094 L -1.6009794226827896 1.6261747843445982 L -1.1752640562168386 1.6417448439065034 L -1.1336345025034664 1.5432005378425535 L -1.117645192964839 1.5437853288120147 L -1.1267460024270795 1.7926189585069014 L -1.1427353119657067 1.7920341675374403 L -1.1788218485543958 1.7116615237024064 L -1.7884142747145602 1.6893663679916968 L -1.787061945597681 1.6523910896836214 L -1.2513151368469129 1.2587092931608868 L -1.7120071179286107 1.241860003353285 L -1.7546360034881474 1.3403677599816435 L -1.7706253130267746 1.3397829690121823 L -1.7614879541289428 1.0899500074711315 M -1.7550084350346655 2.042320676510082 L -1.7395103811602732 2.038344456432365 L -1.6916407647334724 2.0921357180196427 L -1.0313461693259056 2.187020107017822 L -1.0201630503573274 2.23060838353955 L -1.5513067731959382 2.6270416637887504 L -1.5695269728378816 2.70088625956263 L -1.5850250267122739 2.7048624796403473 L -1.6466564379168838 2.4646426445872684 L -1.6311583840424915 2.4606664245095518 L -1.5763558091319658 2.5374562531535605 L -1.4157980928236038 2.418834080968747 L -1.4761869352539272 2.183457387751416 L -1.6737732010360267 2.1577539332309525 L -1.685831410111097 2.2475681837366595 L -1.7013294639854892 2.251544403814376 L -1.7550084350346655 2.042320676510082 M -1.4171965586989863 2.1920675836787034 L -1.3679908352372414 2.3838560003743066 L -1.1543111186493342 2.2268274083316095 L -1.4171965586989863 2.1920675836787034 M -1.4648841629968257 2.9898477036941085 L -1.4511973100819748 2.981560963847387 L -1.3755464785612408 3.029278378804837 L -0.9084826228419582 2.7464933815354677 L -0.9134704119336621 2.6571618531707486 L -0.8997835590188114 2.648875113324027 L -0.823649136677058 2.7746230744792184 L -1.0364088102821065 3.349998883222924 L -0.6719963514242049 3.1293644348039655 L -0.6912821997934433 3.0241405969501844 L -0.6775953468785925 3.015853857103463 L -0.54863295801399 3.228855505590828 L -0.5623198109288408 3.23714224543755 L -0.6365972929019766 3.1897623375468576 L -1.1584085602806624 3.5056942942031126 L -1.1775716461762056 3.4740434468375203 L -0.9457949704298747 2.8509145897140677 L -1.3401474200390127 3.0896762815477294 L -1.3217169999769522 3.1954180406419304 L -1.335403852891803 3.2037047804886516 L -1.4648841629968257 2.9898477036941085 M -1.0528996718352839 3.8946075423906774 Q -1.061940647876042 3.8852661960085744 -1.0645838541925778 3.8739077867727603 Q -1.0672270605091134 3.862549377536946 -1.0557300188080632 3.851422022409859 Q -1.054292888595432 3.8500311030189733 -1.0475011782017425 3.845545273114903 Q -1.0407094678080528 3.841059443210833 -1.0099729061125893 3.8210528499190963 L -1.0058001479399317 3.82536424055699 Q -0.9975701586489798 3.8410571458415705 -0.9920526919071815 3.849633716295613 Q -0.9865352251653834 3.8582102867496553 -0.9767987894291821 3.8682701982380743 Q -0.9614986761294373 3.8840786305770183 -0.9435333997869152 3.8882617927704812 Q -0.9255681234443931 3.8924449549639437 -0.8966626326310276 3.8762980481134526 Q -0.8677571418176623 3.860151141262961 -0.8196132796945146 3.8135553416682835 L -0.42224677590196713 3.428966130088334 L -0.4491409472847774 3.343662533765365 L -0.43764390558372723 3.332535178638278 L -0.2637789817229904 3.5121764552171872 L -0.27527602342404056 3.523303810344274 L -0.3596554033121019 3.4936369896567414 L -0.6212131020109939 3.746784318797974 Q -0.7016923939183453 3.824675804687584 -0.7785222454515678 3.873985275516046 Q -0.8553520969847904 3.9232947463445087 -0.9197479889919877 3.925778512154198 Q -0.9629104035619336 3.9271948343252188 -0.9869257197809569 3.925388017538624 Q -1.01094103599998 3.92358120075203 -1.0249657569632025 3.9162800226345102 Q -1.038990477926425 3.9089788445169904 -1.0528996718352839 3.8946075423906774 M -0.5540937007665571 4.134417370434996 L -0.5443730032156184 4.121708789116722 L -0.4565283527469032 4.13854082357573 L -0.12359446162725662 3.7032719134248544 L -0.1628356243412789 3.6228969723744773 L -0.15311492679034028 3.6101883910562034 L 0.04545665630768703 3.7620742902896187 L 0.0357359587567484 3.7747828716078926 L -0.05210869171196675 3.757950837148884 L -0.38504258283161336 4.19321974729976 L -0.34580142011759113 4.273594688350137 L -0.3555221176685297 4.286303269668411 L -0.5540937007665571 4.134417370434996 M -0.11138244655675666 4.460811656691062 L -0.10476393468692227 4.44624473180525 L -0.015383030583281082 4.442919978939895 L 0.21047368697481728 3.9458236672115925 L 0.15592308900944046 3.8749065870290313 L 0.16254160087927483 3.8603396621432204 L 0.29637522326766386 3.9211472399473237 L 0.4456051988213713 4.516171957413952 L 0.6218230773557117 4.128327582329232 L 0.5464987625102493 4.052365436538966 L 0.5531172743800836 4.037798511653155 L 0.7798150429155182 4.140799102627453 L 0.7731965310456839 4.155366027513264 L 0.6851397167392705 4.158194004565121 L 0.43280895170183464 4.713558015836667 L 0.3991229379033966 4.698252707137675 L 0.23862948204988088 4.053076877903353 L 0.047933608800277666 4.472786401175783 L 0.12284426665387538 4.549658979771412 L 0.11622575478404101 4.564225904657224 L -0.11138244655675666 4.460811656691062 M 1.1716114266584712 4.886726381888748 Q 1.0764196654435334 4.874295428715389 1.006993853584713 4.82287260646939 Q 0.9375680417258926 4.77144978422339 0.9043180247761652 4.693992141780291 Q 0.8710680078264377 4.6165344993371935 0.8831104937131289 4.524317480660222 Q 0.8930811540709269 4.447965755519074 0.9287664185467509 4.387073950657578 Q 0.9644516830225749 4.326182145796082 1.0198151560334845 4.284500184995632 Q 1.075178629044394 4.242818224195181 1.142136008767693 4.224332843469052 Q 1.2090933884909922 4.205847462742923 1.2824703710941736 4.215429655814054 Q 1.3340325750855984 4.222163088782957 1.369944131813854 4.232903670394456 Q 1.4058556885421098 4.2436442520059545 1.433187153024675 4.258306825082951 Q 1.4605186175072402 4.272969398159948 1.4874616147031379 4.290606713774912 L 1.4710538181663724 4.454864998840867 L 1.4551885246305494 4.452793173311973 L 1.4052385483435201 4.333319327350084 Q 1.3673473365831037 4.29912494080306 1.339520081677544 4.284397623178285 Q 1.3116928267719845 4.26967030555351 1.2740127546244047 4.264749719922389 Q 1.1976610294832566 4.254779059564592 1.1338282940228006 4.280227672171872 Q 1.0699955585623444 4.305676284779151 1.0287066977087052 4.359281135020606 Q 0.9874178368550658 4.412885985262061 0.9778356437839353 4.486262967865243 Q 0.9648867342283534 4.585421052464137 0.9920151984180422 4.65955806367115 Q 1.019143662607731 4.733695074878163 1.07583057852348 4.7784118901042145 Q 1.1325174944392287 4.823128705330266 1.207877638734388 4.832969876592508 Q 1.240599806652023 4.83724301674585 1.2713609788369087 4.837226110776347 Q 1.3021221510217946 4.837209204806843 1.336527677181655 4.828591793962329 L 1.3578933779483653 4.664980954374155 L 1.2748222464775827 4.613793191030129 L 1.2768940720064756 4.597927897494306 L 1.522806121811732 4.63004119319215 L 1.520734296282839 4.645906486727973 L 1.446747186800702 4.679609715512145 L 1.4264173987984385 4.8352879083324085 Q 1.3758840942518265 4.86701148208442 1.3059741379497893 4.8810773275921475 Q 1.2360641816477522 4.895143173099876 1.1716114266584712 4.886726381888748 M 2.1087297666410634 5.040396100549813 Q 2.095958146428917 5.042822150251839 2.0850141079417157 5.038793748386253 Q 2.0740700694545144 5.034765346520667 2.071084162128944 5.019046429336488 Q 2.0707109237132473 5.017081564688465 2.070691618536479 5.008942177284602 Q 2.0706723133597107 5.000802789880741 2.0708310481452554 4.964128891761399 L 2.076725642089323 4.963009176514309 Q 2.0943600876367547 4.9647488116009475 2.1045576492925635 4.964847484170488 Q 2.1147552109483723 4.964946156740029 2.1285092634845295 4.962333487830155 Q 2.150122774612777 4.958227865257495 2.1634842835564694 4.945510944295736 Q 2.176845792500162 4.932794023333978 2.1792246526031165 4.899769925698909 Q 2.181603512706071 4.86674582806384 2.1691000257802444 4.800922862355087 L 2.0658996038402124 4.257637787176871 L 1.9798402496053866 4.233270030844274 L 1.9768543422798162 4.217551113660094 L 2.222462423282626 4.170896311698054 L 2.2254483306081965 4.186615228882234 L 2.1543185130012237 4.240842058470537 L 2.2222479046579537 4.598447424410628 Q 2.243149255936948 4.708479844699887 2.2421678932071556 4.7997666834401596 Q 2.2411865304773637 4.8910535221804325 2.207899662521592 4.946234899670443 Q 2.1853809397764072 4.983084691066399 2.1706830652697753 5.002162753991846 Q 2.1559851907631438 5.021240816917293 2.1421818019422156 5.028952266655071 Q 2.128378413121288 5.03666371639285 2.1087297666410634 5.040396100549813 M 2.583061811715571 4.755220257575876 L 2.577778961030612 4.740117559517568 L 2.640085324609754 4.675946560947001 L 2.4591476886498977 4.158679152449946 L 2.370427071645959 4.147336660728973 L 2.3651442209609996 4.132233962670664 L 2.6011238781220642 4.049689420718175 L 2.606406728807024 4.0647921187764835 L 2.544100365227881 4.12896311734705 L 2.725038001187738 4.646230525844104 L 2.813758618191677 4.6575730175650785 L 2.819041468876636 4.672675715623386 L 2.583061811715571 4.755220257575876 M 3.0975646706108013 4.5646051779353405 L 3.089050342081758 4.551058731548944 L 3.1354967526911324 4.4746209729377355 L 2.8449452916375257 4.012348490001952 L 2.755709600215954 4.018828565349812 L 2.7471952716869104 4.005282118963416 L 2.871653247861929 3.9270567256028297 L 3.4505045112084503 4.130170523563816 L 3.2238105141226696 3.7694963885260067 L 3.1189236939512126 3.790538131664836 L 3.110409365422169 3.7769916852784395 L 3.3212259373104662 3.6444874475452016 L 3.3297402658395097 3.658033893931598 L 3.28360836259622 3.7330928541105917 L 3.6082171377659997 4.249551122591962 L 3.5768909804974576 4.2692405073153745 L 2.9499755104216194 4.047910452014269 L 3.1952946011646826 4.4382174385223205 L 3.300713566869205 4.418022348282641 L 3.3092278953982484 4.431568794669038 L 3.0975646706108013 4.5646051779353405 M 3.9215742353422187 3.9869811764788055 L 3.909451008604613 3.9765395591008033 L 3.9313510286506115 3.8898193819677687 L 3.5176459162298186 3.533499188943434 L 3.4342669602397162 3.565948375343105 L 3.4221437335021108 3.555506757965103 L 3.5180760931625086 3.4441246123133507 L 4.131066510190488 3.4679310952930904 L 3.8082855983017367 3.189923032603774 L 3.714232826187408 3.2408943584410537 L 3.7021095994498023 3.2304527410630515 L 3.864607269894966 3.041785024959063 L 3.8767304966325717 3.052226642337066 L 3.854725376001598 3.137536516712875 L 4.316923395372814 3.5356231792492196 L 4.292777155186183 3.563658141079933 L 3.6284903359732095 3.5365837653731726 L 3.9777908063504723 3.837432866076869 L 4.072601280135902 3.787114141325715 L 4.084724506873507 3.797555758703717 L 3.9215742353422187 3.9869811764788055 M 4.506606254936329 3.220826890021982 L 4.49246170238078 3.2133481446055825 L 4.494494048073908 3.1239285182868395 L 4.0100431230463665 2.867781487775144 L 3.937288014575495 2.919807387011888 L 3.923143462019947 2.912328641595488 L 4.039998859151194 2.6913200079150403 L 4.054143411706743 2.69879875333144 L 4.052111066013616 2.788218379650183 L 4.536561991041157 3.0443654101618782 L 4.609317099512028 2.9923395109251345 L 4.623461652067577 2.9998182563415345 L 4.506606254936329 3.220826890021982 M 4.755070106486987 2.730121072675955 L 4.739607351680033 2.726009720856901 L 4.72150722375792 2.638417567274499 L 4.193840715970633 2.4981176864492842 L 4.132951184995801 2.5636727397836006 L 4.117488430188848 2.5595613879645467 L 4.155261475026405 2.4174973281756618 L 4.7173026439149215 2.1716646117312655 L 4.305606797179785 2.062199869548955 L 4.243186805644184 2.149077626522161 L 4.227724050837231 2.144966274703107 L 4.291706963521257 1.904327153019894 L 4.30716971832821 1.9084385048389478 L 4.324560383563581 1.9948072767572245 L 4.914077910578682 2.1515525648586546 L 4.904570409497119 2.1873101853497348 L 4.294940187266368 2.4525666501962777 L 4.740460810141715 2.5710249744827687 L 4.803847223852751 2.4844041769982534 L 4.819309978659704 2.4885155288173073 L 4.755070106486987 2.730121072675955 M 4.962338454555709 1.3942631222422632 Q 4.965864579078609 1.490198342291258 4.92666607032258 1.5671900750377254 Q 4.887467561566551 1.644181807784193 4.816595893867931 1.689815750388537 Q 4.745724226169313 1.7354496929928809 4.652786981746849 1.7388656261244402 Q 4.575838940665885 1.7416938718355162 4.509872714337089 1.7165999087380281 Q 4.4439064880082935 1.6915059456405401 4.393621057422254 1.6438207752961174 Q 4.343335626836215 1.5961356049516948 4.314003096515501 1.533170514107764 Q 4.284670566194788 1.4702054232638333 4.281952511875053 1.3962553578094 Q 4.280042527758482 1.344290446949528 4.284679451851677 1.3070950314396301 Q 4.289316375944871 1.2698996159297322 4.299243769792525 1.2405151497716829 Q 4.30917116364018 1.2111306836136335 4.322096533114366 1.1816360260642433 L 4.486801540254675 1.1705788734962905 L 4.487389227675157 1.1865680768377895 L 4.377852284430377 1.2556380273560128 Q 4.350414532852679 1.2986748695770742 4.340505504236915 1.3285589983395454 Q 4.33059647562115 1.3584431271020168 4.331992233244798 1.396417485038077 Q 4.334820478955874 1.4733655261190415 4.37050170127895 1.5320945681130258 Q 4.406182923602026 1.5908236101070106 4.46589228408791 1.6226519350765538 Q 4.5256016445737925 1.6544802600460973 4.599551710028226 1.651762205726362 Q 4.699484230912596 1.648089159348341 4.768096333603676 1.6090426567609317 Q 4.836708436294757 1.5699961541735223 4.871406180267601 1.5066789640653455 Q 4.906103924240445 1.443361773957169 4.903312408993148 1.3674130580850483 Q 4.902100303688402 1.3344353261932063 4.896982723707731 1.3041028291785945 Q 4.89186514372706 1.2737703321639828 4.877661810707345 1.2412700963012835 L 4.712773151248135 1.247330622825018 L 4.676069154170826 1.337739784963315 L 4.660079950829327 1.3383274723837983 L 4.650970795811835 1.0904948205905622 L 4.666959999153335 1.0899071331700791 L 4.712465385134448 1.157281162637745 L 4.8693594429229075 1.1515144798242523 Q 4.909023402192857 1.1960876818074142 4.934487188301427 1.2626973327374187 Q 4.959950974409995 1.3293069836674232 4.962338454555709 1.3942631222422632" fill="#d21e5d" fill-rule="nonzero"></path></g><g clip-path="url(#SvgjsClipPath1003)"><g clip-path="url(#SvgjsClipPath10016b4ad7c4-77a1-4b26-9a8d-fafc5f76687c)"><path d=" M 2.122082306462596 0.4183954345557402 L 2.1001077563283657 0.34719789212083557 C 2.068172821968649 0.24596247867949456 2.0048287923749077 0.15752713238154767 1.9192572087236546 0.09471031107853208 C 1.8331196027044747 0.03240886946845824 1.7293443725577162 -0.000771489725350796 1.6230402729142301 2.259325103482784e-15 L 1.5571166225115443 2.259325103482784e-15 C 1.4508731385935982 -0.0008227529700565071 1.3471256821479098 0.032194798079795625 1.26089968670212 0.09427082007584905 C 1.1750780975130188 0.15702957111978136 1.111435400958406 0.24545213259649762 1.0791701570920358 0.34675840111815254 L 0.9739120619490751 0.6735199616141532 C 0.8071384179619641 0.6856200478254437 0.6780419562718074 0.8244994508918259 0.6781346171423382 0.9917114475578032 C 0.6781346145182948 1.1678078342869407 0.8208889433583844 1.3105621673814412 0.9969853348387673 1.3105621700054821 C 1.0815878759943331 1.3106204763848743 1.1627452695731482 1.2770531134710632 1.2225889147437876 1.2172506829320857 C 1.2824325599144248 1.157448252393106 1.3160558276308252 1.0763140040539199 1.3160558075390334 0.9917114475578054 C 1.3161204940159121 0.8972745462302703 1.2742619668064898 0.8076811985686196 1.2017881468409781 0.7471347045637737 L 1.299574894938359 0.4445451492154748 C 1.3185733177482053 0.38462643216041714 1.3561267399428243 0.332297893036768 1.4068106995934024 0.2951182083027101 C 1.4579921091023234 0.2582598816985862 1.5195358359703524 0.23856588910081683 1.5826071006672386 0.23886335995908242 L 1.5977695402598615 0.23886335995908242 C 1.6608910531484657 0.23846195974384027 1.7224879004676705 0.25824994694513476 1.7735659413337002 0.29533795380405164 C 1.8196346913158283 0.328911285170396 1.8549151517853062 0.3751882527991914 1.8750883629538437 0.42850372761748584 C 1.9214649794420708 0.41367230307371056 1.9698924724583702 0.4062561479410464 2.018582175330365 0.40652917748325573 C 2.053421712065097 0.40652709708978235 2.0881472577023974 0.41050836983800765 2.1220823064625915 0.4183954345557402 Z" fill="#589f43" transform="matrix(1,0,0,1,0,0)" fill-rule="evenodd"></path></g><g clip-path="url(#SvgjsClipPath10016b4ad7c4-77a1-4b26-9a8d-fafc5f76687c)"><path d=" M 2.9107489107801094 1.7663143397894103 L 2.971178923649244 1.72236523952095 C 3.0576496989644153 1.6606259856826049 3.1222226442500602 1.572963787017105 3.1555453992754328 1.4720751134920707 C 3.188078312598974 1.370909275258871 3.1876165978074753 1.2620215369307326 3.154226926267379 1.1611352290927153 L 3.133570849141205 1.0978485247061323 C 3.101546780766098 0.9965395455048363 3.0380377942313896 0.9080888478946796 2.952280810533806 0.845360943663831 C 2.866040953524672 0.7833124844909435 2.7623027403292846 0.7502978750986432 2.656063874724384 0.7510901235879819 L 2.3130411471290575 0.7510901235879819 C 2.2637017680476252 0.6313644830626157 2.1469770757572397 0.5532587410095721 2.0174834478236643 0.553319172379911 C 1.8413514745514512 0.5533191306089007 1.6985342828865342 0.6960379633263871 1.6984129798746437 0.8721698948275901 C 1.6984129798746437 1.048387648397209 1.8412656942540453 1.1912403627766106 2.0174834478236643 1.1912403627766106 C 2.147470076793589 1.1912548957610578 2.26447114603829 1.112413907793045 2.3132608926304012 0.9919311930591447 L 2.6312326330727096 0.9919311930591447 C 2.6942781686904325 0.991353541507417 2.755863497198054 1.010906883308587 2.8070290341465527 1.0477465504000893 C 2.8577619059573798 1.0849252251811792 2.8953864803383107 1.1372456967129438 2.914484584302935 1.1971734913128518 L 2.9190992398311226 1.2116766944014457 C 2.938537260279755 1.2713698914422482 2.938537260279755 1.335690736482803 2.9190992398311226 1.395383933523608 C 2.9011725678691094 1.4495593507111035 2.8679791668467907 1.4974036321846522 2.8235099467472224 1.5331643628652296 C 2.8733285030367743 1.6014597405669238 2.903498705414264 1.682090936341528 2.910748910780114 1.7663143397894103 Z" fill="#3ba2dc" transform="matrix(1,0,0,1,0,0)" fill-rule="evenodd"></path></g><g clip-path="url(#SvgjsClipPath10016b4ad7c4-77a1-4b26-9a8d-fafc5f76687c)"><path d=" M 2.4248916073122837 2.12449950697736 L 2.5237770829163204 2.426649571323023 C 2.5435724853674024 2.486226452044012 2.5439571801108256 2.5505474131444164 2.52487581042303 2.610356810445185 C 2.505348293267927 2.67012587777091 2.4673347156084993 2.722144457725921 2.4163215327599357 2.7589047693525792 L 2.404015784684766 2.7676945894062714 C 2.353361031919292 2.804924018125888 2.2921822605002715 2.8250860786438534 2.229318111117637 2.825267910757955 C 2.172240964465729 2.825133996246849 2.1164329906759534 2.808414507519132 2.068684149636417 2.7771436459639904 C 2.054492300324883 2.796807205460722 2.038689388815414 2.815256185874107 2.0214388668478227 2.832299766800908 C 1.9788842442052954 2.875011818403468 1.9284325368785258 2.9090443310380936 1.8728909079404241 2.9325037154129983 L 1.9335406663109 2.9764528156814585 C 2.019082441075928 3.039439155418496 2.1224303322204787 3.0736062914335225 2.2286588746136102 3.0740198182774394 C 2.3349269209633055 3.0736340495807886 2.4383048115063795 3.039380020324148 2.5237770829163226 2.976233070180117 L 2.5776147307451844 2.9371183709411883 C 2.6638837230754224 2.8751778075133987 2.7282809794616325 2.787468282686298 2.7615417153686908 2.686608499410965 C 2.7938120207623225 2.5852655427182447 2.792965368071011 2.4762782508183006 2.7591245148539274 2.3754488695102682 L 2.6523282012015668 2.0497860365209797 C 2.7241074988332197 1.989189861591549 2.76551394751481 1.9000252954014765 2.765497134392856 1.806088275532366 C 2.76549717613921 1.629956302215486 2.6227783434017287 1.4871391105705525 2.446646411900508 1.4870178075833183 C 2.270428658375558 1.4870178075833498 2.127575943996156 1.6298705219627492 2.127575943996156 1.8060882755323682 C 2.12753215161948 1.9738945675770876 2.257475809156984 2.1130581742080925 2.4248916073123694 2.1244995069773664 Z" fill="#9b7eb4" transform="matrix(1,0,0,1,0,0)" fill-rule="evenodd"></path></g><g clip-path="url(#SvgjsClipPath10016b4ad7c4-77a1-4b26-9a8d-fafc5f76687c)"><path d=" M 0.44366616721010416 2.305130309080732 L 0.4203731440678227 2.376108106014295 C 0.3867840714426294 2.4769269787464805 0.38609152919182155 2.585810010400968 0.4183954345557446 2.6870479904136504 C 0.4515191210896463 2.7879189956757053 0.5159499425400881 2.87559725807959 0.6023224191792461 2.93733811644253 L 0.656379812509452 2.976672561182802 C 0.7418805300456712 3.0397646015693764 0.8452399452183225 3.074012509053983 0.9514980208121643 3.0744593092801247 C 1.0577831885893925 3.0739640794955396 1.1611495503131914 3.0396369035247175 1.24661622911487 2.9764528156814585 L 1.5239350518088544 2.7740672089452003 C 1.574380130760915 2.8054588553948188 1.6326254277883596 2.822056861606561 1.692040360335715 2.8219717282378234 C 1.8681723336079306 2.821971770008836 2.010989525272843 2.6792529372913494 2.011110828284733 2.5031210057901463 C 2.011110828284733 2.3269032522205273 1.868258113905334 2.184050537841126 1.692040360335715 2.184050537841126 C 1.5158226067660963 2.184050537841126 1.3729698923866946 2.3269032522205273 1.3729698923866946 2.5031210057901463 C 1.3730437975192475 2.5291287845025123 1.376290722519237 2.5550303907524365 1.3826386944457594 2.5802516767612897 L 1.12531671237392 2.767694589406276 C 1.0747777740992748 2.8050129001171595 1.0136622444422556 2.8252564571698002 0.9508387843081352 2.8254876562592988 C 0.8879967209326708 2.8253847707011936 0.8268156663100358 2.805298915032631 0.776141110741002 2.768134080408961 L 0.7638353626658367 2.7591245148539256 C 0.7126687975688658 2.7225188744961746 0.67461464784547 2.6704447748746882 0.6552810850027422 2.6105765559465293 C 0.6377939701468586 2.5563187507485097 0.6364199872131859 2.498153473223007 0.6513256659785791 2.443130483923697 C 0.5816280663501083 2.4204710346288985 0.5182946106602113 2.3816124577727873 0.4665196993497071 2.3297418052310714 C 0.45860886130138107 2.3218309671827453 0.4509177687544011 2.3134806381317388 0.44366616721010416 2.305130309080732 Z" fill="#ff9232" transform="matrix(1,0,0,1,0,0)" fill-rule="evenodd"></path></g><g clip-path="url(#SvgjsClipPath10016b4ad7c4-77a1-4b26-9a8d-fafc5f76687c)"><path d=" M 0.5985867456564247 0.7517493600920087 L 0.5238732752000423 0.7517493600920087 C 0.4176135918602357 0.7508193736013 0.3138335778009188 0.783847286087537 0.2276563393906202 0.8460201801678577 C 0.14194809132506667 0.9087018491572314 0.07844567055003876 0.9970664298235741 0.04636630078322132 1.0982880157088175 L 0.025710223657049325 1.1617944655967443 C -0.007855568802591358 1.2625650367875543 -0.008394438155119503 1.37141664599819 0.024172005147651977 1.472514604494756 C 0.057580475210400835 1.5734191961374313 0.12222737414167899 1.6610773126644853 0.20875822627518478 1.7228047305236354 L 0.4865165399718523 1.9238718642518424 C 0.4803005862100999 1.9488099845299056 0.47720050349988946 1.9744225726356697 0.477287228915475 2.0001235532176174 C 0.4772289225360625 2.0847260896218702 0.5107962854498511 2.1658834832006897 0.5705987159888173 2.225727128371343 C 0.6304011465277812 2.2855707735419957 0.7115353948669627 2.319194041258414 0.796137951363075 2.3191940211666404 C 0.9723557049327685 2.3191940211666404 1.11520841931217 2.176341306787239 1.11520841931217 2.00012355321762 C 1.1150871163002796 1.823991621716417 0.9722699246353671 1.6812727889989283 0.796137951363154 1.681272830769943 C 0.7362188977269285 1.6811970854304934 0.6774944233028508 1.6980299114327266 0.6267141698282396 1.7298365865665908 L 0.3693921877564026 1.5434924014283191 C 0.3178277517078321 1.5070925098167378 0.27931322227615474 1.4550978950839726 0.2595194370852521 1.3951641880222665 C 0.239959495542598 1.3354904023321537 0.239959495542598 1.271130734590217 0.2595194370852521 1.2114569489001041 L 0.2643538381147834 1.1969537458115125 C 0.2833720078493819 1.1369265237113642 0.32110471857601547 1.0845627618866478 0.37202913377250973 1.0475268048987478 C 0.4182520649887707 1.0142478560948884 0.4731344924078666 0.9950886220445523 0.5300261492376227 0.9923706840618322 C 0.5303534841347518 0.907390001381206 0.5540739701849359 0.8241402186089439 0.5985867456564382 0.7517493600919951 Z" fill="#d21e5d" transform="matrix(1,0,0,1,0,0)" fill-rule="evenodd"></path></g></g><g><path d=" M -0.8677896698233707 1.5372296546400617 A 2.4576483720349134 2.4576483720349134 0 0 1 4.047507074246456 1.5372296546400617 A 2.4576483720349134 2.4576483720349134 0 0 1 -0.8677896698233711 1.5372296546400617 Z M -0.8177896698233709 1.5372296546400621 A 2.4076483720349136 2.4076483720349136 0 0 0 3.9975070742464562 1.5372296546400621 A 2.4076483720349136 2.4076483720349136 0 0 0 -0.8177896698233709 1.5372296546400621 Z" fill="#589f43" fill-rule="nonzero"></path></g><g transform="matrix(0.5928335619171864,-0.8053250075991566,0.8053250075991566,0.5928335619171864,-0.5675925763128561,-0.9054946243727074)"><g clip-path="url(#SvgjsClipPath1004)"><path d=" M -1.3037427742576628 0.28517086829640986 L -1.2596423895852489 0.28517086829640986 C -1.255726815447318 0.28517086829640986 -1.252842889585249 0.2862001719170995 -1.2499566190680076 0.28908644243434095 L -1.2186343706197318 0.32020236122744433 C -1.1918443406197317 0.3471987208826168 -1.1667049478611111 0.34699239122744435 -1.1399149178611112 0.32020236122744433 L -1.1085926694128352 0.28908644243434095 C -1.1055000692404215 0.2862001719170995 -1.102822473033525 0.28517086829640986 -1.0987005692404215 0.28517086829640986 L -1.0545999501024905 0.28517086829640986 C -1.016888516309387 0.28517086829640986 -0.9989612828611111 0.26724129019296156 -0.9989612828611111 0.22932352674468576 L -0.9989612828611111 0.18522525226192715 C -0.9989612828611111 0.18130967812399607 -0.9977233049300765 0.17842340760675468 -0.9948393790680077 0.17553948174468575 L -0.9637211156197317 0.14421488864123744 C -0.9367271006197317 0.11742720329640988 -0.9369334302749042 0.09228546588261677 -0.9637211156197317 0.0654954358826168 L -0.9948393790680077 0.034173187434340946 C -0.997929634585249 0.031082931917099543 -0.9989612828611111 0.02840299105503058 -0.9989612828611111 0.024487416917099547 L -0.9989612828611111 -0.01961226435876251 C -0.9989612828611111 -0.05752979334152114 -1.0166821866542146 -0.07545796465186597 -1.0545999501024905 -0.07545796465186597 L -1.0987005692404215 -0.07545796465186597 C -1.102822473033525 -0.07545796465186597 -1.105706398895594 -0.07648844060014182 -1.1085926694128352 -0.079373538789797 L -1.1399149178611112 -0.11069649063462457 C -1.1667049478611111 -0.13769214689324527 -1.1918443406197317 -0.1374860517035901 -1.2186343706197318 -0.1104903954449694 L -1.2499566190680076 -0.079373538789797 C -1.252842889585249 -0.07669453578979699 -1.255726815447318 -0.07545796465186597 -1.2596423895852489 -0.07545796465186597 L -1.3037427742576628 -0.07545796465186597 C -1.3418663984300765 -0.07545796465186597 -1.3595887090162835 -0.05794174925531423 -1.3595887090162835 -0.01961226435876251 L -1.3595887090162835 0.024487416917099547 C -1.3595887090162835 0.02840299105503058 -1.3606191849645592 0.03128691691709956 -1.3635040486886973 0.034173187434340946 L -1.3946211398093868 0.0654954358826168 C -1.4216167960680075 0.09228546588261677 -1.4214107008783525 0.11742720329640988 -1.3946211398093868 0.14421488864123744 L -1.3635040486886973 0.17553948174468575 C -1.3606191849645592 0.17842340760675468 -1.3595887090162835 0.18130967812399607 -1.3595887090162835 0.18522525226192715 L -1.3595887090162835 0.22932352674468576 C -1.3595887090162835 0.26724129019296156 -1.3416603032404213 0.28517086829640986 -1.3037427742576628 0.28517086829640986 Z" fill="#589f43" transform="matrix(1,0,0,1,0,0)" fill-rule="nonzero"></path></g></g><g transform="matrix(-0.5928335619171864,-0.8053250075991566,-0.8053250075991566,0.5928335619171864,7.030580351137492,3.5546100421763036)"><g clip-path="url(#SvgjsClipPath1005)"><path d=" M 4.234523918646265 0.28517086829640986 L 4.278624303318678 0.28517086829640986 C 4.2825398774566095 0.28517086829640986 4.285423803318679 0.2862001719170995 4.28831007383592 0.28908644243434095 L 4.319632322284196 0.32020236122744433 C 4.346422352284196 0.3471987208826168 4.371561745042817 0.34699239122744435 4.3983517750428165 0.32020236122744433 L 4.429674023491092 0.28908644243434095 C 4.432766623663506 0.2862001719170995 4.435444219870402 0.28517086829640986 4.439566123663506 0.28517086829640986 L 4.483666742801437 0.28517086829640986 C 4.52137817659454 0.28517086829640986 4.539305410042816 0.26724129019296156 4.539305410042816 0.22932352674468576 L 4.539305410042816 0.18522525226192715 C 4.539305410042816 0.18130967812399607 4.540543387973851 0.17842340760675468 4.54342731383592 0.17553948174468575 L 4.574545577284196 0.14421488864123744 C 4.601539592284196 0.11742720329640988 4.601333262629023 0.09228546588261677 4.574545577284196 0.0654954358826168 L 4.54342731383592 0.034173187434340946 C 4.540337058318679 0.031082931917099543 4.539305410042816 0.02840299105503058 4.539305410042816 0.024487416917099547 L 4.539305410042816 -0.01961226435876251 C 4.539305410042816 -0.05752979334152114 4.521584506249713 -0.07545796465186597 4.483666742801437 -0.07545796465186597 L 4.439566123663506 -0.07545796465186597 C 4.435444219870402 -0.07545796465186597 4.432560294008334 -0.07648844060014182 4.429674023491092 -0.079373538789797 L 4.3983517750428165 -0.11069649063462457 C 4.371561745042817 -0.13769214689324527 4.346422352284196 -0.1374860517035901 4.319632322284196 -0.1104903954449694 L 4.28831007383592 -0.079373538789797 C 4.285423803318679 -0.07669453578979699 4.2825398774566095 -0.07545796465186597 4.278624303318678 -0.07545796465186597 L 4.234523918646265 -0.07545796465186597 C 4.196400294473851 -0.07545796465186597 4.178677983887644 -0.05794174925531423 4.178677983887644 -0.01961226435876251 L 4.178677983887644 0.024487416917099547 C 4.178677983887644 0.02840299105503058 4.177647507939368 0.03128691691709956 4.17476264421523 0.034173187434340946 L 4.14364555309454 0.0654954358826168 C 4.11664989683592 0.09228546588261677 4.116855992025575 0.11742720329640988 4.14364555309454 0.14421488864123744 L 4.17476264421523 0.17553948174468575 C 4.177647507939368 0.17842340760675468 4.178677983887644 0.18130967812399607 4.178677983887644 0.18522525226192715 L 4.178677983887644 0.22932352674468576 C 4.178677983887644 0.26724129019296156 4.196606389663506 0.28517086829640986 4.234523918646265 0.28517086829640986 Z" fill="#589f43" transform="matrix(1,0,0,1,0,0)" fill-rule="nonzero"></path></g></g></g><defs><clipPath id="SvgjsClipPath1003"><path d=" M 0 0 h 3.179717404423085 v 3.0744593092801233 h -3.179717404423085 Z"></path></clipPath><clipPath id="SvgjsClipPath10016b4ad7c4-77a1-4b26-9a8d-fafc5f76687c"><path d=" M 0 2.82415637935348e-16 L 3.1797174044230845 2.82415637935348e-16 L 3.1797174044230845 3.0744593092801233 L 0 3.0744593092801233 Z"></path></clipPath><clipPath id="SvgjsClipPath1004"><path d=" M -1.5075263683783524 -0.2314082486001418 h 0.656503448275862 v 0.6799499999999999 h -0.656503448275862 Z"></path></clipPath><clipPath id="SvgjsClipPath1005"><path d=" M 4.030740324525575 -0.2314082486001418 h 0.656503448275862 v 0.6799499999999999 h -0.656503448275862 Z"></path></clipPath></defs></svg>